<svg version="1.2" xmlns="http://www.w3.org/2000/svg" viewBox="0 0 70 90" width="70" height="90"><style></style><path fill-rule="evenodd" d="m67 20v62.5c0 2.6-2.1 4.7-4.7 4.7h-42.1c-2.6 0-4.7-2.1-4.7-4.7v-1.6h-1.6c-2.6 0-4.7-2.1-4.7-4.7v-1.5h-1.5c-2.6 0-4.7-2.1-4.7-4.7v-62.5c0-2.6 2.1-4.7 4.7-4.7h42.1c2.6 0 4.7 2.1 4.7 4.7v1.6h1.6c2.6 0 4.7 2.1 4.7 4.6v1.6h1.5c2.6 0 4.7 2.1 4.7 4.7zm-6.2-1.6v45.3h3.1v-43.7c0-0.9-0.7-1.6-1.6-1.6zm-6.2-6.2v45.3h3.1v-43.8c0-0.8-0.7-1.5-1.5-1.5zm-40.7 65.6h42.2c0.9 0 1.6-0.7 1.6-1.6v-15.6h-3.1v9.4c0 2.6-2.2 4.7-4.7 4.7h-37.5v1.5c0 0.9 0.7 1.6 1.5 1.6zm1.6-17.2h26.6c0.8 0 1.5-0.7 1.5-1.5 0-0.9-0.7-1.6-1.5-1.6h-26.6c-0.9 0-1.6 0.7-1.6 1.6 0 0.8 0.7 1.5 1.6 1.5zm22.8-27.4l6.1-6.8c0.3-0.4 0.5-1 0.3-1.5-0.2-0.6-0.6-0.9-1.2-1.1l-8.8-1.9-4.6-7.8c-0.5-1-2.1-1-2.7 0l-4.5 7.8-8.9 1.9c-0.5 0.2-1 0.5-1.1 1.1-0.2 0.5-0.1 1.1 0.3 1.5l6 6.8-0.9 9c-0.1 0.5 0.2 1 0.6 1.4 0.5 0.3 1.1 0.4 1.6 0.1l8.3-3.6 8.3 3.6q0.3 0.2 0.6 0.2c0.3 0 0.6-0.1 0.9-0.3 0.5-0.4 0.7-0.9 0.6-1.4zm-32.2 18v3.2h45.3v-3.2zm7.8 15.7c0 0.8 0.8 1.5 1.6 1.5h26.6c0.8 0 1.5-0.7 1.5-1.5 0-0.9-0.7-1.6-1.5-1.6h-26.6c-0.8 0-1.6 0.7-1.6 1.6zm50 15.6v-15.6h-3.1v9.3c0 2.6-2.1 4.7-4.7 4.7h-37.5v1.6c0 0.9 0.7 1.6 1.6 1.6h42.2c0.8 0 1.5-0.7 1.5-1.6zm-30.5-57.7l6.9 1.5-4.7 5.3c-0.3 0.3-0.5 0.7-0.4 1.2l0.7 7-6.5-2.8q-0.3-0.2-0.6-0.2-0.3 0-0.6 0.2l-6.5 2.8 0.7-7c0-0.5-0.1-0.9-0.4-1.2l-4.7-5.3 6.9-1.5c0.5-0.1 0.8-0.3 1-0.7l3.6-6.1 3.6 6.1c0.2 0.4 0.5 0.6 1 0.7z"/></svg>
